<svg width="92" height="36" viewBox="0 0 92 36" fill="none" xmlns="http://www.w3.org/2000/svg">
<rect width="92" height="36" rx="18" fill="white"/>
<path d="M48.156 21.516V24.666H46.518V23H40.75V24.666H39.126V21.516H39.476C39.952 21.4973 40.274 21.194 40.442 20.606C40.6193 20.0087 40.736 19.1687 40.792 18.086L40.89 15.524H47.05V21.516H48.156ZM42.388 18.212C42.3507 19.0707 42.2807 19.7707 42.178 20.312C42.0753 20.8533 41.8887 21.2547 41.618 21.516H45.3V17.008H42.43L42.388 18.212ZM53.051 23.098C52.295 23.098 51.6136 22.9347 51.007 22.608C50.4003 22.2813 49.9243 21.8287 49.579 21.25C49.243 20.662 49.075 19.9993 49.075 19.262C49.075 18.5247 49.243 17.8667 49.579 17.288C49.9243 16.7093 50.4003 16.2567 51.007 15.93C51.6136 15.6033 52.295 15.44 53.051 15.44C53.8163 15.44 54.5023 15.6033 55.109 15.93C55.7156 16.2567 56.187 16.7093 56.523 17.288C56.8683 17.8667 57.041 18.5247 57.041 19.262C57.041 19.9993 56.8683 20.662 56.523 21.25C56.187 21.8287 55.7156 22.2813 55.109 22.608C54.5023 22.9347 53.8163 23.098 53.051 23.098ZM53.051 21.6C53.695 21.6 54.227 21.3853 54.647 20.956C55.067 20.5267 55.277 19.962 55.277 19.262C55.277 18.562 55.067 17.9973 54.647 17.568C54.227 17.1387 53.695 16.924 53.051 16.924C52.407 16.924 51.875 17.1387 51.455 17.568C51.0443 17.9973 50.839 18.562 50.839 19.262C50.839 19.962 51.0443 20.5267 51.455 20.956C51.875 21.3853 52.407 21.6 53.051 21.6ZM65.4669 13.2V23H63.6469V14.726H61.5749V13.2H65.4669ZM76.1469 20.774H74.4109V23H72.6469V20.774H67.2709V19.514L72.1009 13.2H74.0469L69.4969 19.234H72.7029V17.26H74.4109V19.234H76.1469V20.774Z" fill="#727488"/>
<g clip-path="url(#clip0_9884_592)">
<path d="M16.334 25.3333C16.334 23.5651 17.0364 21.8694 18.2866 20.6192C19.5368 19.369 21.2325 18.6666 23.0007 18.6666C24.7688 18.6666 26.4645 19.369 27.7147 20.6192C28.9649 21.8694 29.6673 23.5651 29.6673 25.3333H28.0007C28.0007 24.0072 27.4739 22.7354 26.5362 21.7977C25.5985 20.86 24.3267 20.3333 23.0007 20.3333C21.6746 20.3333 20.4028 20.86 19.4651 21.7977C18.5274 22.7354 18.0007 24.0072 18.0007 25.3333H16.334ZM23.0007 17.8333C20.2382 17.8333 18.0007 15.5958 18.0007 12.8333C18.0007 10.0708 20.2382 7.83325 23.0007 7.83325C25.7632 7.83325 28.0007 10.0708 28.0007 12.8333C28.0007 15.5958 25.7632 17.8333 23.0007 17.8333ZM23.0007 16.1666C24.8423 16.1666 26.334 14.6749 26.334 12.8333C26.334 10.9916 24.8423 9.49992 23.0007 9.49992C21.159 9.49992 19.6673 10.9916 19.6673 12.8333C19.6673 14.6749 21.159 16.1666 23.0007 16.1666Z" fill="#727488"/>
</g>
<defs>
<clipPath id="clip0_9884_592">
<rect width="20" height="20" fill="white" transform="translate(13 7)"/>
</clipPath>
</defs>
</svg>
