<svg width="92" height="36" viewBox="0 0 92 36" fill="none" xmlns="http://www.w3.org/2000/svg">
<rect width="92" height="36" rx="18" fill="white"/>
<path d="M48.156 21.516V24.666H46.518V23H40.75V24.666H39.126V21.516H39.476C39.952 21.4973 40.274 21.194 40.442 20.606C40.6193 20.0087 40.736 19.1687 40.792 18.086L40.89 15.524H47.05V21.516H48.156ZM42.388 18.212C42.3507 19.0707 42.2807 19.7707 42.178 20.312C42.0753 20.8533 41.8887 21.2547 41.618 21.516H45.3V17.008H42.43L42.388 18.212ZM53.051 23.098C52.295 23.098 51.6136 22.9347 51.007 22.608C50.4003 22.2813 49.9243 21.8287 49.579 21.25C49.243 20.662 49.075 19.9993 49.075 19.262C49.075 18.5247 49.243 17.8667 49.579 17.288C49.9243 16.7093 50.4003 16.2567 51.007 15.93C51.6136 15.6033 52.295 15.44 53.051 15.44C53.8163 15.44 54.5023 15.6033 55.109 15.93C55.7156 16.2567 56.187 16.7093 56.523 17.288C56.8683 17.8667 57.041 18.5247 57.041 19.262C57.041 19.9993 56.8683 20.662 56.523 21.25C56.187 21.8287 55.7156 22.2813 55.109 22.608C54.5023 22.9347 53.8163 23.098 53.051 23.098ZM53.051 21.6C53.695 21.6 54.227 21.3853 54.647 20.956C55.067 20.5267 55.277 19.962 55.277 19.262C55.277 18.562 55.067 17.9973 54.647 17.568C54.227 17.1387 53.695 16.924 53.051 16.924C52.407 16.924 51.875 17.1387 51.455 17.568C51.0443 17.9973 50.839 18.562 50.839 19.262C50.839 19.962 51.0443 20.5267 51.455 20.956C51.875 21.3853 52.407 21.6 53.051 21.6ZM65.3829 13.06C66.7269 13.06 67.7676 13.48 68.5049 14.32C69.2516 15.16 69.6249 16.364 69.6249 17.932C69.6249 19.0333 69.4242 19.976 69.0229 20.76C68.6216 21.5347 68.0569 22.1273 67.3289 22.538C66.6102 22.9393 65.7749 23.14 64.8229 23.14C64.3189 23.14 63.8429 23.0887 63.3949 22.986C62.9562 22.874 62.5736 22.7153 62.2469 22.51L62.9189 21.138C63.4042 21.4553 64.0249 21.614 64.7809 21.614C65.7236 21.614 66.4609 21.3247 66.9929 20.746C67.5249 20.1673 67.7909 19.332 67.7909 18.24V18.226C67.5016 18.562 67.1329 18.8187 66.6849 18.996C66.2369 19.164 65.7329 19.248 65.1729 19.248C64.5289 19.248 63.9502 19.1267 63.4369 18.884C62.9236 18.632 62.5222 18.2773 62.2329 17.82C61.9436 17.3627 61.7989 16.8353 61.7989 16.238C61.7989 15.6033 61.9576 15.048 62.2749 14.572C62.5922 14.0867 63.0216 13.7133 63.5629 13.452C64.1042 13.1907 64.7109 13.06 65.3829 13.06ZM65.5229 17.82C66.1109 17.82 66.5869 17.6613 66.9509 17.344C67.3242 17.0267 67.5109 16.6253 67.5109 16.14C67.5109 15.664 67.3289 15.272 66.9649 14.964C66.6102 14.6467 66.1156 14.488 65.4809 14.488C64.9116 14.488 64.4496 14.642 64.0949 14.95C63.7402 15.2487 63.5629 15.65 63.5629 16.154C63.5629 16.6673 63.7402 17.0733 64.0949 17.372C64.4496 17.6707 64.9256 17.82 65.5229 17.82Z" fill="#727488"/>
<g clip-path="url(#clip0_9884_158)">
<path d="M16.334 25.3333C16.334 23.5651 17.0364 21.8694 18.2866 20.6192C19.5368 19.369 21.2325 18.6666 23.0007 18.6666C24.7688 18.6666 26.4645 19.369 27.7147 20.6192C28.9649 21.8694 29.6673 23.5651 29.6673 25.3333H28.0007C28.0007 24.0072 27.4739 22.7354 26.5362 21.7977C25.5985 20.86 24.3267 20.3333 23.0007 20.3333C21.6746 20.3333 20.4028 20.86 19.4651 21.7977C18.5274 22.7354 18.0007 24.0072 18.0007 25.3333H16.334ZM23.0007 17.8333C20.2382 17.8333 18.0007 15.5958 18.0007 12.8333C18.0007 10.0708 20.2382 7.83325 23.0007 7.83325C25.7632 7.83325 28.0007 10.0708 28.0007 12.8333C28.0007 15.5958 25.7632 17.8333 23.0007 17.8333ZM23.0007 16.1666C24.8423 16.1666 26.334 14.6749 26.334 12.8333C26.334 10.9916 24.8423 9.49992 23.0007 9.49992C21.159 9.49992 19.6673 10.9916 19.6673 12.8333C19.6673 14.6749 21.159 16.1666 23.0007 16.1666Z" fill="#727488"/>
</g>
<defs>
<clipPath id="clip0_9884_158">
<rect width="20" height="20" fill="white" transform="translate(13 7)"/>
</clipPath>
</defs>
</svg>
