<svg width="171" height="20" viewBox="0 0 171 20" fill="none" xmlns="http://www.w3.org/2000/svg">
<path d="M34.968 10.112C35.5547 10.3787 36.0027 10.7413 36.312 11.2C36.632 11.648 36.792 12.176 36.792 12.784C36.792 13.4667 36.6 14.064 36.216 14.576C35.8427 15.088 35.3093 15.4827 34.616 15.76C33.9227 16.0267 33.1173 16.16 32.2 16.16C31.2827 16.16 30.4773 16.0267 29.784 15.76C29.1013 15.4827 28.5733 15.088 28.2 14.576C27.8267 14.064 27.64 13.4667 27.64 12.784C27.64 12.176 27.7947 11.648 28.104 11.2C28.4133 10.7413 28.856 10.3787 29.432 10.112C28.984 9.86667 28.6373 9.54667 28.392 9.152C28.1573 8.74667 28.04 8.28267 28.04 7.76C28.04 7.13067 28.2107 6.58133 28.552 6.112C28.904 5.64267 29.3947 5.28 30.024 5.024C30.6533 4.768 31.3787 4.64 32.2 4.64C33.032 4.64 33.7627 4.768 34.392 5.024C35.0213 5.28 35.512 5.64267 35.864 6.112C36.216 6.58133 36.392 7.13067 36.392 7.76C36.392 8.28267 36.2693 8.74133 36.024 9.136C35.7787 9.53067 35.4267 9.856 34.968 10.112ZM32.2 6.272C31.5493 6.272 31.032 6.41067 30.648 6.688C30.2747 6.96533 30.088 7.35467 30.088 7.856C30.088 8.336 30.2747 8.72 30.648 9.008C31.032 9.28533 31.5493 9.424 32.2 9.424C32.8613 9.424 33.384 9.28533 33.768 9.008C34.152 8.72 34.344 8.336 34.344 7.856C34.344 7.35467 34.1467 6.96533 33.752 6.688C33.368 6.41067 32.8507 6.272 32.2 6.272ZM32.2 14.528C32.968 14.528 33.576 14.368 34.024 14.048C34.472 13.728 34.696 13.2853 34.696 12.72C34.696 12.1653 34.472 11.728 34.024 11.408C33.576 11.088 32.968 10.928 32.2 10.928C31.432 10.928 30.8293 11.088 30.392 11.408C29.9547 11.728 29.736 12.1653 29.736 12.72C29.736 13.2853 29.9547 13.728 30.392 14.048C30.8293 14.368 31.432 14.528 32.2 14.528ZM45.1554 19.104C44.526 18.1333 44.0407 17.008 43.6994 15.728C43.3687 14.448 43.2034 13.0773 43.2034 11.616C43.2034 10.1547 43.3687 8.784 43.6994 7.504C44.0407 6.21333 44.526 5.088 45.1554 4.128H47.0594C46.4087 5.28 45.9287 6.46933 45.6194 7.696C45.3207 8.912 45.1714 10.2187 45.1714 11.616C45.1714 13.0133 45.3207 14.3253 45.6194 15.552C45.9287 16.768 46.4087 17.952 47.0594 19.104H45.1554ZM55.3743 10.112C55.9609 10.3787 56.4089 10.7413 56.7183 11.2C57.0383 11.648 57.1983 12.176 57.1983 12.784C57.1983 13.4667 57.0063 14.064 56.6223 14.576C56.2489 15.088 55.7156 15.4827 55.0223 15.76C54.3289 16.0267 53.5236 16.16 52.6063 16.16C51.6889 16.16 50.8836 16.0267 50.1903 15.76C49.5076 15.4827 48.9796 15.088 48.6063 14.576C48.2329 14.064 48.0463 13.4667 48.0463 12.784C48.0463 12.176 48.2009 11.648 48.5103 11.2C48.8196 10.7413 49.2623 10.3787 49.8383 10.112C49.3903 9.86667 49.0436 9.54667 48.7983 9.152C48.5636 8.74667 48.4463 8.28267 48.4463 7.76C48.4463 7.13067 48.6169 6.58133 48.9583 6.112C49.3103 5.64267 49.8009 5.28 50.4303 5.024C51.0596 4.768 51.7849 4.64 52.6063 4.64C53.4383 4.64 54.1689 4.768 54.7983 5.024C55.4276 5.28 55.9183 5.64267 56.2703 6.112C56.6223 6.58133 56.7983 7.13067 56.7983 7.76C56.7983 8.28267 56.6756 8.74133 56.4303 9.136C56.1849 9.53067 55.8329 9.856 55.3743 10.112ZM52.6063 6.272C51.9556 6.272 51.4383 6.41067 51.0543 6.688C50.6809 6.96533 50.4943 7.35467 50.4943 7.856C50.4943 8.336 50.6809 8.72 51.0543 9.008C51.4383 9.28533 51.9556 9.424 52.6063 9.424C53.2676 9.424 53.7903 9.28533 54.1743 9.008C54.5583 8.72 54.7503 8.336 54.7503 7.856C54.7503 7.35467 54.5529 6.96533 54.1583 6.688C53.7743 6.41067 53.2569 6.272 52.6063 6.272ZM52.6063 14.528C53.3743 14.528 53.9823 14.368 54.4303 14.048C54.8783 13.728 55.1023 13.2853 55.1023 12.72C55.1023 12.1653 54.8783 11.728 54.4303 11.408C53.9823 11.088 53.3743 10.928 52.6063 10.928C51.8383 10.928 51.2356 11.088 50.7983 11.408C50.3609 11.728 50.1423 12.1653 50.1423 12.72C50.1423 13.2853 50.3609 13.728 50.7983 14.048C51.2356 14.368 51.8383 14.528 52.6063 14.528ZM68.5318 13.456H66.5478V16H64.5318V13.456H58.3878V12.016L63.9078 4.8H66.1318L60.9318 11.696H64.5958V9.44H66.5478V11.696H68.5318V13.456ZM74.0189 9.424C75.0535 9.552 75.8429 9.904 76.3869 10.48C76.9309 11.056 77.2029 11.776 77.2029 12.64C77.2029 13.2907 77.0375 13.8827 76.7069 14.416C76.3762 14.9493 75.8749 15.376 75.2029 15.696C74.5415 16.0053 73.7309 16.16 72.7709 16.16C71.9709 16.16 71.1975 16.048 70.4509 15.824C69.7149 15.5893 69.0855 15.2693 68.5629 14.864L69.4589 13.248C69.8642 13.5893 70.3549 13.8613 70.9309 14.064C71.5175 14.256 72.1202 14.352 72.7389 14.352C73.4749 14.352 74.0509 14.2027 74.4669 13.904C74.8935 13.5947 75.1069 13.1787 75.1069 12.656C75.1069 12.1333 74.9042 11.728 74.4989 11.44C74.1042 11.1413 73.4962 10.992 72.6749 10.992H71.6509V9.568L74.1949 6.544H69.1069V4.8H76.7389V6.192L74.0189 9.424ZM78.2114 19.104C78.862 17.952 79.342 16.7627 79.6514 15.536C79.9607 14.3093 80.1154 13.0027 80.1154 11.616C80.1154 10.2293 79.9607 8.92267 79.6514 7.696C79.342 6.46933 78.862 5.28 78.2114 4.128H80.1154C80.7447 5.07733 81.2247 6.19733 81.5554 7.488C81.8967 8.768 82.0674 10.144 82.0674 11.616C82.0674 13.088 81.8967 14.464 81.5554 15.744C81.2247 17.0133 80.7447 18.1333 80.1154 19.104H78.2114ZM92.0518 9.136C93.6304 9.136 94.7984 9.44533 95.5558 10.064C96.3131 10.672 96.6918 11.504 96.6918 12.56C96.6918 13.232 96.5264 13.84 96.1958 14.384C95.8651 14.928 95.3691 15.36 94.7078 15.68C94.0464 16 93.2304 16.16 92.2598 16.16C91.4598 16.16 90.6864 16.048 89.9398 15.824C89.1931 15.5893 88.5638 15.2693 88.0518 14.864L88.9318 13.248C89.3478 13.5893 89.8438 13.8613 90.4198 14.064C91.0064 14.256 91.6091 14.352 92.2278 14.352C92.9638 14.352 93.5398 14.2027 93.9558 13.904C94.3824 13.5947 94.5958 13.1733 94.5958 12.64C94.5958 12.064 94.3664 11.632 93.9078 11.344C93.4598 11.0453 92.6864 10.896 91.5878 10.896H88.8838L89.4598 4.8H96.0358V6.544H91.2198L90.9798 9.136H92.0518ZM105.925 14.24V16H97.6694V14.608L102.117 10.384C102.619 9.904 102.955 9.488 103.125 9.136C103.307 8.77333 103.397 8.416 103.397 8.064C103.397 7.54133 103.221 7.14133 102.869 6.864C102.517 6.58667 102 6.448 101.317 6.448C100.176 6.448 99.3014 6.83733 98.6934 7.616L97.2374 6.496C97.6747 5.90933 98.2614 5.456 98.9974 5.136C99.744 4.80533 100.576 4.64 101.493 4.64C102.709 4.64 103.68 4.928 104.405 5.504C105.131 6.08 105.493 6.864 105.493 7.856C105.493 8.464 105.365 9.03467 105.109 9.568C104.853 10.1013 104.363 10.7093 103.637 11.392L100.645 14.24H105.925ZM114.39 10.112C114.977 10.3787 115.425 10.7413 115.734 11.2C116.054 11.648 116.214 12.176 116.214 12.784C116.214 13.4667 116.022 14.064 115.638 14.576C115.265 15.088 114.731 15.4827 114.038 15.76C113.345 16.0267 112.539 16.16 111.622 16.16C110.705 16.16 109.899 16.0267 109.206 15.76C108.523 15.4827 107.995 15.088 107.622 14.576C107.249 14.064 107.062 13.4667 107.062 12.784C107.062 12.176 107.217 11.648 107.526 11.2C107.835 10.7413 108.278 10.3787 108.854 10.112C108.406 9.86667 108.059 9.54667 107.814 9.152C107.579 8.74667 107.462 8.28267 107.462 7.76C107.462 7.13067 107.633 6.58133 107.974 6.112C108.326 5.64267 108.817 5.28 109.446 5.024C110.075 4.768 110.801 4.64 111.622 4.64C112.454 4.64 113.185 4.768 113.814 5.024C114.443 5.28 114.934 5.64267 115.286 6.112C115.638 6.58133 115.814 7.13067 115.814 7.76C115.814 8.28267 115.691 8.74133 115.446 9.136C115.201 9.53067 114.849 9.856 114.39 10.112ZM111.622 6.272C110.971 6.272 110.454 6.41067 110.07 6.688C109.697 6.96533 109.51 7.35467 109.51 7.856C109.51 8.336 109.697 8.72 110.07 9.008C110.454 9.28533 110.971 9.424 111.622 9.424C112.283 9.424 112.806 9.28533 113.19 9.008C113.574 8.72 113.766 8.336 113.766 7.856C113.766 7.35467 113.569 6.96533 113.174 6.688C112.79 6.41067 112.273 6.272 111.622 6.272ZM111.622 14.528C112.39 14.528 112.998 14.368 113.446 14.048C113.894 13.728 114.118 13.2853 114.118 12.72C114.118 12.1653 113.894 11.728 113.446 11.408C112.998 11.088 112.39 10.928 111.622 10.928C110.854 10.928 110.251 11.088 109.814 11.408C109.377 11.728 109.158 12.1653 109.158 12.72C109.158 13.2853 109.377 13.728 109.814 14.048C110.251 14.368 110.854 14.528 111.622 14.528ZM117.739 10.72H122.139V12.384H117.739V10.72ZM128.886 9.088C129.622 9.088 130.283 9.232 130.87 9.52C131.456 9.79733 131.915 10.1973 132.246 10.72C132.576 11.2427 132.742 11.8453 132.742 12.528C132.742 13.2533 132.56 13.8933 132.198 14.448C131.835 14.992 131.344 15.4133 130.726 15.712C130.107 16.0107 129.414 16.16 128.646 16.16C127.11 16.16 125.915 15.68 125.062 14.72C124.219 13.76 123.798 12.384 123.798 10.592C123.798 9.33333 124.027 8.26133 124.486 7.376C124.944 6.48 125.584 5.80267 126.406 5.344C127.238 4.87467 128.198 4.64 129.286 4.64C129.862 4.64 130.4 4.704 130.902 4.832C131.414 4.94933 131.856 5.12533 132.23 5.36L131.462 6.928C130.907 6.56533 130.198 6.384 129.334 6.384C128.256 6.384 127.414 6.71467 126.806 7.376C126.198 8.03733 125.894 8.992 125.894 10.24V10.256C126.224 9.872 126.646 9.584 127.158 9.392C127.67 9.18933 128.246 9.088 128.886 9.088ZM128.534 14.528C129.184 14.528 129.712 14.3573 130.118 14.016C130.523 13.664 130.726 13.2 130.726 12.624C130.726 12.0373 130.523 11.5733 130.118 11.232C129.712 10.8907 129.168 10.72 128.486 10.72C127.814 10.72 127.264 10.9013 126.838 11.264C126.422 11.6267 126.214 12.0853 126.214 12.64C126.214 13.184 126.416 13.6373 126.822 14C127.238 14.352 127.808 14.528 128.534 14.528ZM137.333 9.136C138.912 9.136 140.08 9.44533 140.837 10.064C141.594 10.672 141.973 11.504 141.973 12.56C141.973 13.232 141.808 13.84 141.477 14.384C141.146 14.928 140.65 15.36 139.989 15.68C139.328 16 138.512 16.16 137.541 16.16C136.741 16.16 135.968 16.048 135.221 15.824C134.474 15.5893 133.845 15.2693 133.333 14.864L134.213 13.248C134.629 13.5893 135.125 13.8613 135.701 14.064C136.288 14.256 136.89 14.352 137.509 14.352C138.245 14.352 138.821 14.2027 139.237 13.904C139.664 13.5947 139.877 13.1733 139.877 12.64C139.877 12.064 139.648 11.632 139.189 11.344C138.741 11.0453 137.968 10.896 136.869 10.896H134.165L134.741 4.8H141.317V6.544H136.501L136.261 9.136H137.333ZM143.349 10.72H147.749V12.384H143.349V10.72ZM159.391 13.456H157.407V16H155.391V13.456H149.247V12.016L154.767 4.8H156.991L151.791 11.696H155.455V9.44H157.407V11.696H159.391V13.456ZM167.687 10.112C168.273 10.3787 168.721 10.7413 169.031 11.2C169.351 11.648 169.511 12.176 169.511 12.784C169.511 13.4667 169.319 14.064 168.935 14.576C168.561 15.088 168.028 15.4827 167.335 15.76C166.641 16.0267 165.836 16.16 164.919 16.16C164.001 16.16 163.196 16.0267 162.503 15.76C161.82 15.4827 161.292 15.088 160.919 14.576C160.545 14.064 160.359 13.4667 160.359 12.784C160.359 12.176 160.513 11.648 160.823 11.2C161.132 10.7413 161.575 10.3787 162.151 10.112C161.703 9.86667 161.356 9.54667 161.111 9.152C160.876 8.74667 160.759 8.28267 160.759 7.76C160.759 7.13067 160.929 6.58133 161.271 6.112C161.623 5.64267 162.113 5.28 162.743 5.024C163.372 4.768 164.097 4.64 164.919 4.64C165.751 4.64 166.481 4.768 167.111 5.024C167.74 5.28 168.231 5.64267 168.583 6.112C168.935 6.58133 169.111 7.13067 169.111 7.76C169.111 8.28267 168.988 8.74133 168.743 9.136C168.497 9.53067 168.145 9.856 167.687 10.112ZM164.919 6.272C164.268 6.272 163.751 6.41067 163.367 6.688C162.993 6.96533 162.807 7.35467 162.807 7.856C162.807 8.336 162.993 8.72 163.367 9.008C163.751 9.28533 164.268 9.424 164.919 9.424C165.58 9.424 166.103 9.28533 166.487 9.008C166.871 8.72 167.063 8.336 167.063 7.856C167.063 7.35467 166.865 6.96533 166.471 6.688C166.087 6.41067 165.569 6.272 164.919 6.272ZM164.919 14.528C165.687 14.528 166.295 14.368 166.743 14.048C167.191 13.728 167.415 13.2853 167.415 12.72C167.415 12.1653 167.191 11.728 166.743 11.408C166.295 11.088 165.687 10.928 164.919 10.928C164.151 10.928 163.548 11.088 163.111 11.408C162.673 11.728 162.455 12.1653 162.455 12.72C162.455 13.2853 162.673 13.728 163.111 14.048C163.548 14.368 164.151 14.528 164.919 14.528Z" fill="white"/>
<g clip-path="url(#clip0_102_1821)">
<path d="M17.5004 13.6833C17.5002 13.6833 17.5 13.6835 17.5 13.6838V16.63C17.5001 16.841 17.4202 17.0441 17.2763 17.1985C17.1325 17.3528 16.9355 17.4469 16.725 17.4617C16.3608 17.4867 16.0633 17.5 15.8333 17.5C8.46917 17.5 2.5 11.5308 2.5 4.16667C2.5 3.93667 2.5125 3.63917 2.53833 3.275C2.5531 3.06454 2.64715 2.86751 2.8015 2.72367C2.95585 2.57984 3.15902 2.4999 3.37 2.5H6.31667C6.42003 2.4999 6.51975 2.53822 6.59644 2.60752C6.67313 2.67682 6.72133 2.77215 6.73167 2.875C6.75083 3.06667 6.76833 3.21917 6.785 3.335C6.95061 4.49077 7.29 5.61486 7.79167 6.66917C7.87083 6.83583 7.81917 7.035 7.66917 7.14167L7.18105 7.49045C6.41614 8.03702 6.11879 9.05445 6.61299 9.8542C7.50046 11.2904 8.71079 12.5007 10.147 13.3881C10.9466 13.8821 11.9638 13.585 12.5105 12.8204L12.8575 12.335C12.91 12.2617 12.9865 12.2091 13.0737 12.1864C13.161 12.1637 13.2535 12.1723 13.335 12.2108C14.3892 12.7116 15.513 13.0501 16.6683 13.215C16.7842 13.2317 16.9367 13.25 17.1267 13.2683C17.2294 13.2789 17.3245 13.3271 17.3936 13.4038C17.4627 13.4804 17.5009 13.5798 17.5008 13.6829C17.5008 13.6831 17.5006 13.6833 17.5004 13.6833Z" fill="white"/>
</g>
<defs>
<clipPath id="clip0_102_1821">
<rect width="20" height="20" fill="white"/>
</clipPath>
</defs>
</svg>
